<?xml version="1.0" encoding="utf-8"?>
<!-- Generator: Adobe Illustrator 25.2.1, SVG Export Plug-In . SVG Version: 6.00 Build 0)  -->
<svg version="1.1" id="Ebene_1" xmlns:ev="http://www.w3.org/2001/xml-events"
	 xmlns="http://www.w3.org/2000/svg" xmlns:xlink="http://www.w3.org/1999/xlink" x="0px" y="0px" viewBox="0 0 1300 205"
	 style="enable-background:new 0 0 1300 205;" xml:space="preserve">
<style type="text/css">
	.st0{display:none;}
	.st1{display:inline;fill:#98CBEB;stroke:#2C8ECA;}
	.st2{fill:none;stroke:#7B7B7B;stroke-width:0.1;}
	.st3{fill:none;stroke:#A1A1A1;}
</style>
<g transform="translate(0, 32.5)" class="st0">
	<path class="st1" d="M1300,0L1300,0h-50h-50h-50h-50h-50h-50h-50h-50l-50,2.5L800,0h-50l-50,1.5L650,0l-50,2.5L550,4l-50,1.5L450,4
		l-50,2.5L350,11l-50-1.5L250,16l-50-5l-50,8l-50,9.5l-50-3H0V0H1300z"/>
</g>
<line class="st2" x1="0" y1="0" x2="1300" y2="0"/>
<line class="st2" x1="0" y1="205" x2="1300" y2="205"/>
<g transform="translate(0, 32.5)">
	<line class="st3" x1="0" y1="0" x2="1300" y2="0"/>
	<line class="st3" x1="0" y1="10" x2="1300" y2="10"/>
	<line class="st3" x1="0" y1="20" x2="1300" y2="20"/>
	<line class="st3" x1="0" y1="30" x2="1300" y2="30"/>
	<line class="st3" x1="0" y1="40" x2="1300" y2="40"/>
	<line class="st3" x1="0" y1="50" x2="1300" y2="50"/>
	<line class="st3" x1="0" y1="60" x2="1300" y2="60"/>
	<line class="st3" x1="0" y1="70" x2="1300" y2="70"/>
	<line class="st3" x1="0" y1="80" x2="1300" y2="80"/>
	<line class="st3" x1="0" y1="90" x2="1300" y2="90"/>
	<line class="st3" x1="0" y1="100" x2="1300" y2="100"/>
	<line class="st3" x1="0" y1="110" x2="1300" y2="110"/>
	<line class="st3" x1="0" y1="120" x2="1300" y2="120"/>
	<line class="st3" x1="0" y1="130" x2="1300" y2="130"/>
	<line class="st3" x1="0" y1="140" x2="1300" y2="140"/>
</g>
</svg>
