<?xml version="1.0" encoding="utf-8"?>
<!-- Generator: Adobe Illustrator 25.2.1, SVG Export Plug-In . SVG Version: 6.00 Build 0)  -->
<svg version="1.1" xmlns="http://www.w3.org/2000/svg" xmlns:xlink="http://www.w3.org/1999/xlink" x="0px" y="0px"
	 viewBox="0 0 1300 205" style="enable-background:new 0 0 1300 205;" xml:space="preserve">
<style type="text/css">
	.st0{fill:none;stroke:#A1A1A1;}
	.st1{fill:#FFFFFF;}
	.st2{fill:url(#SVGID_1_);}
	.st3{fill:none;stroke:#7B7B7B;stroke-width:0.1;}
	.st4{fill:#686868;}
</style>
<g id="Ebene_2">
	<line class="st0" x1="0" y1="32.5" x2="1300" y2="32.5"/>
	<line class="st0" x1="0" y1="42.5" x2="1300" y2="42.5"/>
	<line class="st0" x1="0" y1="52.5" x2="1300" y2="52.5"/>
	<line class="st0" x1="0" y1="62.5" x2="1300" y2="62.5"/>
	<line class="st0" x1="0" y1="72.5" x2="1300" y2="72.5"/>
	<line class="st0" x1="0" y1="82.5" x2="1300" y2="82.5"/>
	<line class="st0" x1="0" y1="92.5" x2="1300" y2="92.5"/>
	<line class="st0" x1="0" y1="102.5" x2="1300" y2="102.5"/>
	<line class="st0" x1="0" y1="112.5" x2="1300" y2="112.5"/>
	<line class="st0" x1="0" y1="122.5" x2="1300" y2="122.5"/>
	<line class="st0" x1="0" y1="132.5" x2="1300" y2="132.5"/>
	<line class="st0" x1="0" y1="142.5" x2="1300" y2="142.5"/>
	<line class="st0" x1="0" y1="152.5" x2="1300" y2="152.5"/>
	<line class="st0" x1="0" y1="162.5" x2="1300" y2="162.5"/>
	<line class="st0" x1="0" y1="172.5" x2="1300" y2="172.5"/>
	<rect x="131" y="12" class="st1" width="1169" height="172.5"/>
	<linearGradient id="SVGID_1_" gradientUnits="userSpaceOnUse" x1="15" y1="102.5" x2="131" y2="102.5">
		<stop  offset="0" style="stop-color:#FFFFFF;stop-opacity:0"/>
		<stop  offset="1" style="stop-color:#FFFFFF"/>
	</linearGradient>
	<rect x="15" y="16.3" class="st2" width="116" height="172.5"/>
</g>
<g id="Ebene_1" xmlns:ev="http://www.w3.org/2001/xml-events">
	<line class="st3" x1="0" y1="0" x2="1300" y2="0"/>
	<line class="st3" x1="0" y1="205" x2="1300" y2="205"/>
	<circle class="st4" cx="1300" cy="32.5" r="5"/>
	<circle class="st4" cx="1250" cy="32.5" r="5"/>
	<circle class="st4" cx="1200" cy="32.5" r="5"/>
	<circle class="st4" cx="1150" cy="32.5" r="5"/>
	<circle class="st4" cx="1100" cy="32.5" r="5"/>
	<circle class="st4" cx="1050" cy="32.5" r="5"/>
	<circle class="st4" cx="1000" cy="32.5" r="5"/>
	<circle class="st4" cx="950" cy="32.5" r="5"/>
	<circle class="st4" cx="900" cy="32.5" r="5"/>
	<circle class="st4" cx="850" cy="32.5" r="5"/>
	<circle class="st4" cx="800" cy="32.5" r="5"/>
	<circle class="st4" cx="750" cy="32.5" r="5"/>
	<circle class="st4" cx="700" cy="32.5" r="5"/>
	<circle class="st4" cx="650" cy="32.5" r="5"/>
	<circle class="st4" cx="600" cy="32.5" r="5"/>
	<circle class="st4" cx="550" cy="32.5" r="5"/>
	<circle class="st4" cx="500" cy="32.5" r="5"/>
	<circle class="st4" cx="450" cy="32.5" r="5"/>
	<circle class="st4" cx="400" cy="32.5" r="5"/>
	<circle class="st4" cx="350" cy="32.5" r="5"/>
	<circle class="st4" cx="300" cy="32.5" r="5"/>
	<circle class="st4" cx="250" cy="32.5" r="5"/>
	<circle class="st4" cx="200" cy="32.5" r="5"/>
	<circle class="st4" cx="150" cy="32.5" r="5"/>
	<circle class="st4" cx="100" cy="32.5" r="5"/>
	<circle class="st4" cx="50" cy="32.5" r="5"/>
</g>
</svg>
