<?xml version="1.0" encoding="utf-8" ?>
<svg baseProfile="full" height="205" version="1.1" width="1300" xmlns="http://www.w3.org/2000/svg" xmlns:ev="http://www.w3.org/2001/xml-events" xmlns:xlink="http://www.w3.org/1999/xlink"><defs /><g transform="translate(0, 32.5)"><path d="M 1300 0L 1300.0 9.5 L 1250.0 8.5 L 1200.0 9.5 L 1150.0 9.5 L 1100.0 9.5 L 1050.0 12.0 L 1000.0 12.0 L 950.0 15.0 L 900.0 15.0 L 850.0 9.5 L 800.0 12.0 L 750.0 9.5 L 700.0 9.5 L 650.0 13.5 L 600.0 17.5 L 550.0 8.0 L 500.0 0.0 " style="fill:#98cbeb;stroke:#2c8eca" /></g><line style="stroke:#7b7b7b;stroke-width:0.1" x1="0" x2="1300" y1="0" y2="0" /><line style="stroke:#7b7b7b;stroke-width:0.1" x1="0" x2="1300" y1="205" y2="205" /><g transform="translate(0, 32.5)"><line style="stroke:#a1a1a1;stroke-width:1" x1="0" x2="1300" y1="0" y2="0" /><line style="stroke:#a1a1a1;stroke-width:1" x1="0" x2="1300" y1="10" y2="10" /><line style="stroke:#a1a1a1;stroke-width:1" x1="0" x2="1300" y1="20" y2="20" /><line style="stroke:#a1a1a1;stroke-width:1" x1="0" x2="1300" y1="30" y2="30" /><line style="stroke:#a1a1a1;stroke-width:1" x1="0" x2="1300" y1="40" y2="40" /><line style="stroke:#a1a1a1;stroke-width:1" x1="0" x2="1300" y1="50" y2="50" /><line style="stroke:#a1a1a1;stroke-width:1" x1="0" x2="1300" y1="60" y2="60" /><line style="stroke:#a1a1a1;stroke-width:1" x1="0" x2="1300" y1="70" y2="70" /><line style="stroke:#a1a1a1;stroke-width:1" x1="0" x2="1300" y1="80" y2="80" /><line style="stroke:#a1a1a1;stroke-width:1" x1="0" x2="1300" y1="90" y2="90" /><line style="stroke:#a1a1a1;stroke-width:1" x1="0" x2="1300" y1="100" y2="100" /><line style="stroke:#a1a1a1;stroke-width:1" x1="0" x2="1300" y1="110" y2="110" /><line style="stroke:#a1a1a1;stroke-width:1" x1="0" x2="1300" y1="120" y2="120" /><line style="stroke:#a1a1a1;stroke-width:1" x1="0" x2="1300" y1="130" y2="130" /><line style="stroke:#a1a1a1;stroke-width:1" x1="0" x2="1300" y1="140" y2="140" /><circle cx="1300.0" cy="10" r="5" style="fill: #686868" /><circle cx="1300.0" cy="0" r="5" style="fill: #686868" /><circle cx="1275.0" cy="30" r="5" style="fill: #686868" /><circle cx="1250.0" cy="50" r="5" style="fill: #686868" /><circle cx="1250.0" cy="0" r="5" style="fill: #686868" /><circle cx="1225.0" cy="70" r="5" style="fill: #686868" /><circle cx="1200.0" cy="140" r="5" style="fill: #686868" /><circle cx="1200.0" cy="0" r="5" style="fill: #686868" /><circle cx="1175.0" cy="90" r="5" style="fill: #686868" /><circle cx="1150.0" cy="20" r="5" style="fill: #686868" /><circle cx="1150.0" cy="50" r="5" style="fill: #686868" /><circle cx="1150.0" cy="0" r="5" style="fill: #686868" /><circle cx="1100.0" cy="0" r="5" style="fill: #686868" /><circle cx="1050.0" cy="0" r="5" style="fill: #686868" /><circle cx="1000.0" cy="50" r="5" style="fill: #686868" /><circle cx="1000.0" cy="0" r="5" style="fill: #686868" /><circle cx="950.0" cy="30" r="5" style="fill: #686868" /><circle cx="950.0" cy="70" r="5" style="fill: #686868" /><circle cx="950.0" cy="0" r="5" style="fill: #686868" /><circle cx="900.0" cy="0" r="5" style="fill: #686868" /><circle cx="850.0" cy="0" r="5" style="fill: #686868" /><circle cx="800.0" cy="80" r="5" style="fill: #686868" /><circle cx="800.0" cy="0" r="5" style="fill: #686868" /><circle cx="750.0" cy="20" r="5" style="fill: #686868" /><circle cx="750.0" cy="60" r="5" style="fill: #686868" /><circle cx="750.0" cy="0" r="5" style="fill: #686868" /><circle cx="700.0" cy="0" r="5" style="fill: #686868" /><circle cx="650.0" cy="0" r="5" style="fill: #686868" /><circle cx="600.0" cy="0" r="5" style="fill: #686868" /><circle cx="550.0" cy="70" r="5" style="fill: #686868" /><circle cx="550.0" cy="100" r="5" style="fill: #686868" /><circle cx="550.0" cy="0" r="5" style="fill: #686868" /><circle cx="500.0" cy="30" r="5" style="fill: #686868" /><circle cx="500.0" cy="0" r="5" style="fill: #686868" /><circle cx="450.0" cy="60" r="5" style="fill: #686868" /><circle cx="450.0" cy="90" r="5" style="fill: #686868" /><circle cx="450.0" cy="0" r="5" style="fill: #686868" /><circle cx="400.0" cy="20" r="5" style="fill: #686868" /><circle cx="400.0" cy="0" r="5" style="fill: #686868" /></g></svg>