<?xml version="1.0" encoding="utf-8" ?>
<svg baseProfile="full" height="205" version="1.1" width="1300" xmlns="http://www.w3.org/2000/svg" xmlns:ev="http://www.w3.org/2001/xml-events" xmlns:xlink="http://www.w3.org/1999/xlink"><defs /><g transform="translate(0, 32.5)"><path d="M 1300 0L 1300.0 118.5 L 1250.0 121.0 L 1200.0 114.0 L 1150.0 120.5 L 1100.0 106.5 L 1050.0 132.0 L 1000.0 117.5 L 950.0 111.0 L 900.0 109.5 L 850.0 120.5 L 800.0 84.0 L 750.0 124.5 L 700.0 123.0 L 650.0 103.0 L 600.0 99.0 L 550.0 124.5 L 500.0 105.0 L 450.0 98.5 L 400.0 87.5 L 350.0 87.0 L 300.0 68.0 L 250.0 86.0 L 200.0 79.5 L 150.0 81.5 L 100.0 64.5 L 50.0 89.0 L 0 74.0 L 0 0 Z" style="fill:#98cbeb;stroke:#2c8eca" /></g><line style="stroke:#7b7b7b;stroke-width:0.1" x1="0" x2="1300" y1="0" y2="0" /><line style="stroke:#7b7b7b;stroke-width:0.1" x1="0" x2="1300" y1="205" y2="205" /><g transform="translate(0, 32.5)"><line style="stroke:#a1a1a1;stroke-width:1" x1="0" x2="1300" y1="0" y2="0" /><line style="stroke:#a1a1a1;stroke-width:1" x1="0" x2="1300" y1="10" y2="10" /><line style="stroke:#a1a1a1;stroke-width:1" x1="0" x2="1300" y1="20" y2="20" /><line style="stroke:#a1a1a1;stroke-width:1" x1="0" x2="1300" y1="30" y2="30" /><line style="stroke:#a1a1a1;stroke-width:1" x1="0" x2="1300" y1="40" y2="40" /><line style="stroke:#a1a1a1;stroke-width:1" x1="0" x2="1300" y1="50" y2="50" /><line style="stroke:#a1a1a1;stroke-width:1" x1="0" x2="1300" y1="60" y2="60" /><line style="stroke:#a1a1a1;stroke-width:1" x1="0" x2="1300" y1="70" y2="70" /><line style="stroke:#a1a1a1;stroke-width:1" x1="0" x2="1300" y1="80" y2="80" /><line style="stroke:#a1a1a1;stroke-width:1" x1="0" x2="1300" y1="90" y2="90" /><line style="stroke:#a1a1a1;stroke-width:1" x1="0" x2="1300" y1="100" y2="100" /><line style="stroke:#a1a1a1;stroke-width:1" x1="0" x2="1300" y1="110" y2="110" /><line style="stroke:#a1a1a1;stroke-width:1" x1="0" x2="1300" y1="120" y2="120" /><line style="stroke:#a1a1a1;stroke-width:1" x1="0" x2="1300" y1="130" y2="130" /><line style="stroke:#a1a1a1;stroke-width:1" x1="0" x2="1300" y1="140" y2="140" /><circle cx="1300.0" cy="40" r="5" style="fill: #686868" /><circle cx="1300.0" cy="0" r="5" style="fill: #686868" /><circle cx="1250.0" cy="20" r="5" style="fill: #686868" /><circle cx="1250.0" cy="0" r="5" style="fill: #686868" /><circle cx="1200.0" cy="10" r="5" style="fill: #686868" /><circle cx="1200.0" cy="20" r="5" style="fill: #686868" /><circle cx="1200.0" cy="30" r="5" style="fill: #686868" /><circle cx="1200.0" cy="40" r="5" style="fill: #686868" /><circle cx="1200.0" cy="50" r="5" style="fill: #686868" /><circle cx="1200.0" cy="60" r="5" style="fill: #686868" /><circle cx="1200.0" cy="70" r="5" style="fill: #686868" /><circle cx="1200.0" cy="80" r="5" style="fill: #686868" /><circle cx="1200.0" cy="90" r="5" style="fill: #686868" /><circle cx="1200.0" cy="100" r="5" style="fill: #686868" /><circle cx="1200.0" cy="110" r="5" style="fill: #686868" /><circle cx="1200.0" cy="120" r="5" style="fill: #686868" /><circle cx="1200.0" cy="130" r="5" style="fill: #686868" /><circle cx="1200.0" cy="140" r="5" style="fill: #686868" /><circle cx="1200.0" cy="0" r="5" style="fill: #686868" /><circle cx="1150.0" cy="10" r="5" style="fill: #686868" /><circle cx="1150.0" cy="20" r="5" style="fill: #686868" /><circle cx="1150.0" cy="30" r="5" style="fill: #686868" /><circle cx="1150.0" cy="50" r="5" style="fill: #686868" /><circle cx="1150.0" cy="60" r="5" style="fill: #686868" /><circle cx="1150.0" cy="70" r="5" style="fill: #686868" /><circle cx="1150.0" cy="80" r="5" style="fill: #686868" /><circle cx="1150.0" cy="90" r="5" style="fill: #686868" /><circle cx="1150.0" cy="100" r="5" style="fill: #686868" /><circle cx="1150.0" cy="110" r="5" style="fill: #686868" /><circle cx="1150.0" cy="120" r="5" style="fill: #686868" /><circle cx="1150.0" cy="130" r="5" style="fill: #686868" /><circle cx="1150.0" cy="140" r="5" style="fill: #686868" /><circle cx="1150.0" cy="0" r="5" style="fill: #686868" /><circle cx="1100.0" cy="40" r="5" style="fill: #686868" /><circle cx="1100.0" cy="0" r="5" style="fill: #686868" /><circle cx="1050.0" cy="0" r="5" style="fill: #686868" /><circle cx="1025.0" cy="50" r="5" style="fill: #686868" /><circle cx="1000.0" cy="40" r="5" style="fill: #686868" /><circle cx="1000.0" cy="0" r="5" style="fill: #686868" /><circle cx="950.0" cy="20" r="5" style="fill: #686868" /><circle cx="950.0" cy="0" r="5" style="fill: #686868" /><circle cx="900.0" cy="10" r="5" style="fill: #686868" /><circle cx="900.0" cy="20" r="5" style="fill: #686868" /><circle cx="900.0" cy="30" r="5" style="fill: #686868" /><circle cx="900.0" cy="40" r="5" style="fill: #686868" /><circle cx="900.0" cy="60" r="5" style="fill: #686868" /><circle cx="900.0" cy="70" r="5" style="fill: #686868" /><circle cx="900.0" cy="80" r="5" style="fill: #686868" /><circle cx="900.0" cy="90" r="5" style="fill: #686868" /><circle cx="900.0" cy="100" r="5" style="fill: #686868" /><circle cx="900.0" cy="110" r="5" style="fill: #686868" /><circle cx="900.0" cy="120" r="5" style="fill: #686868" /><circle cx="900.0" cy="130" r="5" style="fill: #686868" /><circle cx="900.0" cy="140" r="5" style="fill: #686868" /><circle cx="900.0" cy="0" r="5" style="fill: #686868" /><circle cx="875.0" cy="50" r="5" style="fill: #686868" /><circle cx="850.0" cy="10" r="5" style="fill: #686868" /><circle cx="850.0" cy="20" r="5" style="fill: #686868" /><circle cx="850.0" cy="30" r="5" style="fill: #686868" /><circle cx="850.0" cy="40" r="5" style="fill: #686868" /><circle cx="850.0" cy="60" r="5" style="fill: #686868" /><circle cx="850.0" cy="70" r="5" style="fill: #686868" /><circle cx="850.0" cy="80" r="5" style="fill: #686868" /><circle cx="850.0" cy="90" r="5" style="fill: #686868" /><circle cx="850.0" cy="100" r="5" style="fill: #686868" /><circle cx="850.0" cy="110" r="5" style="fill: #686868" /><circle cx="850.0" cy="120" r="5" style="fill: #686868" /><circle cx="850.0" cy="130" r="5" style="fill: #686868" /><circle cx="850.0" cy="140" r="5" style="fill: #686868" /><circle cx="850.0" cy="0" r="5" style="fill: #686868" /><circle cx="825.0" cy="50" r="5" style="fill: #686868" /><circle cx="800.0" cy="10" r="5" style="fill: #686868" /><circle cx="800.0" cy="20" r="5" style="fill: #686868" /><circle cx="800.0" cy="30" r="5" style="fill: #686868" /><circle cx="800.0" cy="40" r="5" style="fill: #686868" /><circle cx="800.0" cy="60" r="5" style="fill: #686868" /><circle cx="800.0" cy="80" r="5" style="fill: #686868" /><circle cx="800.0" cy="90" r="5" style="fill: #686868" /><circle cx="800.0" cy="100" r="5" style="fill: #686868" /><circle cx="800.0" cy="110" r="5" style="fill: #686868" /><circle cx="800.0" cy="120" r="5" style="fill: #686868" /><circle cx="800.0" cy="130" r="5" style="fill: #686868" /><circle cx="800.0" cy="140" r="5" style="fill: #686868" /><circle cx="800.0" cy="0" r="5" style="fill: #686868" /><circle cx="775.0" cy="70" r="5" style="fill: #686868" /><circle cx="750.0" cy="10" r="5" style="fill: #686868" /><circle cx="750.0" cy="20" r="5" style="fill: #686868" /><circle cx="750.0" cy="30" r="5" style="fill: #686868" /><circle cx="750.0" cy="40" r="5" style="fill: #686868" /><circle cx="750.0" cy="50" r="5" style="fill: #686868" /><circle cx="750.0" cy="60" r="5" style="fill: #686868" /><circle cx="750.0" cy="90" r="5" style="fill: #686868" /><circle cx="750.0" cy="100" r="5" style="fill: #686868" /><circle cx="750.0" cy="110" r="5" style="fill: #686868" /><circle cx="750.0" cy="120" r="5" style="fill: #686868" /><circle cx="750.0" cy="130" r="5" style="fill: #686868" /><circle cx="750.0" cy="140" r="5" style="fill: #686868" /><circle cx="750.0" cy="0" r="5" style="fill: #686868" /><circle cx="725.0" cy="80" r="5" style="fill: #686868" /><circle cx="700.0" cy="10" r="5" style="fill: #686868" /><circle cx="700.0" cy="20" r="5" style="fill: #686868" /><circle cx="700.0" cy="30" r="5" style="fill: #686868" /><circle cx="700.0" cy="40" r="5" style="fill: #686868" /><circle cx="700.0" cy="50" r="5" style="fill: #686868" /><circle cx="700.0" cy="70" r="5" style="fill: #686868" /><circle cx="700.0" cy="90" r="5" style="fill: #686868" /><circle cx="700.0" cy="100" r="5" style="fill: #686868" /><circle cx="700.0" cy="110" r="5" style="fill: #686868" /><circle cx="700.0" cy="120" r="5" style="fill: #686868" /><circle cx="700.0" cy="130" r="5" style="fill: #686868" /><circle cx="700.0" cy="140" r="5" style="fill: #686868" /><circle cx="700.0" cy="0" r="5" style="fill: #686868" /><circle cx="675.0" cy="60" r="5" style="fill: #686868" /><circle cx="650.0" cy="10" r="5" style="fill: #686868" /><circle cx="650.0" cy="20" r="5" style="fill: #686868" /><circle cx="650.0" cy="30" r="5" style="fill: #686868" /><circle cx="650.0" cy="40" r="5" style="fill: #686868" /><circle cx="650.0" cy="50" r="5" style="fill: #686868" /><circle cx="650.0" cy="70" r="5" style="fill: #686868" /><circle cx="650.0" cy="80" r="5" style="fill: #686868" /><circle cx="650.0" cy="90" r="5" style="fill: #686868" /><circle cx="650.0" cy="100" r="5" style="fill: #686868" /><circle cx="650.0" cy="110" r="5" style="fill: #686868" /><circle cx="650.0" cy="120" r="5" style="fill: #686868" /><circle cx="650.0" cy="130" r="5" style="fill: #686868" /><circle cx="650.0" cy="140" r="5" style="fill: #686868" /><circle cx="650.0" cy="0" r="5" style="fill: #686868" /><circle cx="625.0" cy="60" r="5" style="fill: #686868" /><circle cx="600.0" cy="10" r="5" style="fill: #686868" /><circle cx="600.0" cy="20" r="5" style="fill: #686868" /><circle cx="600.0" cy="30" r="5" style="fill: #686868" /><circle cx="600.0" cy="40" r="5" style="fill: #686868" /><circle cx="600.0" cy="50" r="5" style="fill: #686868" /><circle cx="600.0" cy="70" r="5" style="fill: #686868" /><circle cx="600.0" cy="80" r="5" style="fill: #686868" /><circle cx="600.0" cy="90" r="5" style="fill: #686868" /><circle cx="600.0" cy="110" r="5" style="fill: #686868" /><circle cx="600.0" cy="120" r="5" style="fill: #686868" /><circle cx="600.0" cy="130" r="5" style="fill: #686868" /><circle cx="600.0" cy="140" r="5" style="fill: #686868" /><circle cx="600.0" cy="0" r="5" style="fill: #686868" /><circle cx="575.0" cy="100" r="5" style="fill: #686868" /><circle cx="550.0" cy="10" r="5" style="fill: #686868" /><circle cx="550.0" cy="20" r="5" style="fill: #686868" /><circle cx="550.0" cy="30" r="5" style="fill: #686868" /><circle cx="550.0" cy="40" r="5" style="fill: #686868" /><circle cx="550.0" cy="50" r="5" style="fill: #686868" /><circle cx="550.0" cy="60" r="5" style="fill: #686868" /><circle cx="550.0" cy="70" r="5" style="fill: #686868" /><circle cx="550.0" cy="80" r="5" style="fill: #686868" /><circle cx="550.0" cy="110" r="5" style="fill: #686868" /><circle cx="550.0" cy="120" r="5" style="fill: #686868" /><circle cx="550.0" cy="130" r="5" style="fill: #686868" /><circle cx="550.0" cy="0" r="5" style="fill: #686868" /><circle cx="525.0" cy="90" r="5" style="fill: #686868" /><circle cx="500.0" cy="10" r="5" style="fill: #686868" /><circle cx="500.0" cy="20" r="5" style="fill: #686868" /><circle cx="500.0" cy="30" r="5" style="fill: #686868" /><circle cx="500.0" cy="40" r="5" style="fill: #686868" /><circle cx="500.0" cy="50" r="5" style="fill: #686868" /><circle cx="500.0" cy="60" r="5" style="fill: #686868" /><circle cx="500.0" cy="70" r="5" style="fill: #686868" /><circle cx="500.0" cy="90" r="5" style="fill: #686868" /><circle cx="500.0" cy="100" r="5" style="fill: #686868" /><circle cx="500.0" cy="110" r="5" style="fill: #686868" /><circle cx="500.0" cy="120" r="5" style="fill: #686868" /><circle cx="500.0" cy="0" r="5" style="fill: #686868" /><circle cx="475.0" cy="80" r="5" style="fill: #686868" /><circle cx="450.0" cy="50" r="5" style="fill: #686868" /><circle cx="450.0" cy="90" r="5" style="fill: #686868" /><circle cx="450.0" cy="0" r="5" style="fill: #686868" /><circle cx="425.0" cy="70" r="5" style="fill: #686868" /><circle cx="400.0" cy="40" r="5" style="fill: #686868" /><circle cx="400.0" cy="80" r="5" style="fill: #686868" /><circle cx="400.0" cy="0" r="5" style="fill: #686868" /><circle cx="375.0" cy="60" r="5" style="fill: #686868" /><circle cx="350.0" cy="30" r="5" style="fill: #686868" /><circle cx="350.0" cy="70" r="5" style="fill: #686868" /><circle cx="350.0" cy="0" r="5" style="fill: #686868" /><circle cx="325.0" cy="50" r="5" style="fill: #686868" /><circle cx="300.0" cy="20" r="5" style="fill: #686868" /><circle cx="300.0" cy="60" r="5" style="fill: #686868" /><circle cx="300.0" cy="0" r="5" style="fill: #686868" /><circle cx="275.0" cy="40" r="5" style="fill: #686868" /><circle cx="250.0" cy="10" r="5" style="fill: #686868" /><circle cx="250.0" cy="50" r="5" style="fill: #686868" /><circle cx="250.0" cy="0" r="5" style="fill: #686868" /><circle cx="225.0" cy="30" r="5" style="fill: #686868" /><circle cx="200.0" cy="20" r="5" style="fill: #686868" /><circle cx="200.0" cy="0" r="5" style="fill: #686868" /><circle cx="187.5" cy="10" r="5" style="fill: #686868" /><circle cx="175.0" cy="40" r="5" style="fill: #686868" /><circle cx="162.5" cy="50" r="5" style="fill: #686868" /><circle cx="150.0" cy="70" r="5" style="fill: #686868" /><circle cx="150.0" cy="0" r="5" style="fill: #686868" /><circle cx="137.5" cy="80" r="5" style="fill: #686868" /><circle cx="125.0" cy="90" r="5" style="fill: #686868" /><circle cx="112.5" cy="50" r="5" style="fill: #686868" /><circle cx="100.0" cy="60" r="5" style="fill: #686868" /><circle cx="100.0" cy="0" r="5" style="fill: #686868" /><circle cx="87.5" cy="70" r="5" style="fill: #686868" /><circle cx="75.0" cy="30" r="5" style="fill: #686868" /><circle cx="62.5" cy="40" r="5" style="fill: #686868" /><circle cx="50.0" cy="50" r="5" style="fill: #686868" /><circle cx="50.0" cy="0" r="5" style="fill: #686868" /><circle cx="37.5" cy="10" r="5" style="fill: #686868" /><circle cx="25.0" cy="20" r="5" style="fill: #686868" /><circle cx="12.5" cy="30" r="5" style="fill: #686868" /></g></svg>